<svg xmlns="http://www.w3.org/2000/svg" version="1.1" xmlns:xlink="http://www.w3.org/1999/xlink" width="1000" height="1000"><g clip-path="url(#SvgjsClipPath1994)"><rect width="1000" height="1000" fill="#000000"></rect><g transform="matrix(1,0,0,1,100,100)"><svg xmlns="http://www.w3.org/2000/svg" version="1.1" xmlns:xlink="http://www.w3.org/1999/xlink" width="800" height="800"><svg id="Layer_1" xmlns="http://www.w3.org/2000/svg" version="1.1" xmlns:xlink="http://www.w3.org/1999/xlink" viewBox="0 0 800 800">
  <!-- Generator: Adobe Illustrator 29.5.1, SVG Export Plug-In . SVG Version: 2.1.0 Build 141)  -->
  <defs>
    <style>
      .st0 {
        stroke-miterlimit: 11.62;
      }

      .st0, .st1, .st2 {
        stroke: #fff;
      }

      .st0, .st3, .st2 {
        fill: none;
      }

      .st0, .st2 {
        stroke-width: 1.16px;
      }

      .st1 {
        fill: #fff;
        stroke-miterlimit: 10;
      }

      .st4 {
        clip-path: url(#clippath-1);
      }

      .st2 {
        stroke-miterlimit: 58.09;
      }

      .st5 {
        clip-path: url(#clippath);
      }
    </style>
    <clipPath id="clippath">
      <rect class="st3" x="6.19" y="1.23" width="787.69" height="797.62"></rect>
    </clipPath>
    <clipPath id="clippath-1">
      <rect class="st3" x="6.19" width="787.69" height="799.6"></rect>
    </clipPath>
  <clipPath id="SvgjsClipPath1994"><rect width="1000" height="1000" x="0" y="0" rx="150" ry="150"></rect></clipPath></defs>
  <g id="b5fa89f9ac">
    <g class="st5">
      <path class="st1" d="M501.09,215.85l291.67,582.93h-112.18l-67.32-134.5h-179.49l44.89-89.68h89.75l-67.32-134.55-179.5,358.74h-33.68c-63.03-.02-120.97-35.43-149.7-91.48-28.74-56.05-23.67-123.72,13.11-174.86-7.75-.17-32.52-1.69-55.7-20.17-23.19-18.5-30.17-42.29-32.05-49.81l67.32-11.22c-6.86-.36-51.65-3.48-80.29-41.36-18.07-23.9-20.36-49.22-20.71-59.51l89.79,11.22c-10.4-3.02-72.01-22.01-99.89-83.24-13.74-30.16-13.65-58.19-12.32-73.73l250.21,125.06c-32.48,26.1-40.9,72.59-19.64,108.4,21.25,35.83,66.1,50.74,104.61,34.78,38.68-16.04,59.66-58.06,49.23-98.59L119.66,238.26l-5.11-2.66-5.02-2.78-4.9-2.9-4.86-3.03-4.74-3.2-4.65-3.36-4.57-3.44-4.49-3.57-4.32-3.74-4.28-3.82-4.11-3.98-4.03-4.07-3.9-4.19-3.77-4.28-3.7-4.4-3.53-4.52-3.41-4.61-3.23-4.69-3.16-4.77-2.99-4.9-2.86-4.93-2.7-5.06-2.58-5.11-2.41-5.18-2.28-5.28-2.12-5.31-1.95-5.35-1.83-5.44-1.66-5.48-1.5-5.52-1.37-5.56-1.16-5.6-1.04-5.64-.83-5.65-.71-5.69-.54-5.69-.37-5.73-.21-5.69-.08-5.72.12-5.73.29-5.73.45-5.69.58-5.73.79-5.64.91-5.65,1.08-5.64,1.25-5.56,1.42-5.56,1.58-5.52,427.81,326.66,28.08-56.07-28.08,30.84-113.75-86.87h169.86ZM467.44,451.25c-7.49-14.94-14.98-29.88-22.47-44.82l-22.42,44.82c7.47,14.96,14.95,29.91,22.42,44.87,7.49-14.96,14.98-29.91,22.47-44.87ZM262.41,692.88l64.78-129.49h-39.29c-32.02.01-59.8,22.85-66.01,54.21-6.21,31.42,10.86,63.13,40.51,75.27Z"></path>
    </g>
    <path class="st1" d="M351.07,376.3c8.04,17.29,4.26,37.77-9.42,51.06-13.64,13.27-34.32,16.47-51.35,7.96-17.02-8.51-26.86-26.96-24.43-45.82,2.42-18.86,16.61-34.23,35.23-38.17,16.65,8.33,33.31,16.66,49.96,24.97Z"></path>
    <path class="st0" d="M262.41,692.88l64.78-129.49h-39.29c-32.02.01-59.8,22.85-66.01,54.21-6.21,31.42,10.86,63.13,40.51,75.27Z"></path>
    <path class="st0" d="M467.44,451.25c-7.49-14.94-14.98-29.88-22.47-44.82l-22.42,44.82c7.47,14.96,14.95,29.91,22.42,44.87,7.49-14.96,14.98-29.91,22.47-44.87Z"></path>
    <path class="st0" d="M301.11,351.33c16.65,8.33,33.31,16.66,49.96,24.97,8.04,17.29,4.26,37.77-9.42,51.06-13.64,13.27-34.32,16.47-51.35,7.96-17.02-8.51-26.86-26.96-24.43-45.82,2.42-18.86,16.61-34.23,35.23-38.17Z"></path>
    <g class="st4">
      <path class="st2" d="M287.9,798.78h33.68l179.5-358.74,67.32,134.55h-89.75l-44.89,89.68h179.49l67.32,134.5h112.18L501.09,215.85h-169.86l113.75,86.87,28.08-30.84-28.08,56.07L17.17,1.29l-1.58,5.52-1.42,5.56-1.25,5.56-1.08,5.64-.91,5.65-.79,5.64-.58,5.73-.45,5.69-.29,5.73-.12,5.73.08,5.72.21,5.69.37,5.73.54,5.69.71,5.69.83,5.65,1.04,5.64,1.16,5.6,1.37,5.56,1.5,5.52,1.66,5.48,1.83,5.44,1.95,5.35,2.12,5.31,2.28,5.28,2.41,5.18,2.58,5.11,2.7,5.06,2.86,4.93,2.99,4.9,3.16,4.77,3.23,4.69,3.41,4.61,3.53,4.52,3.7,4.4,3.77,4.28,3.9,4.19,4.03,4.07,4.11,3.98,4.28,3.82,4.32,3.74,4.49,3.57,4.57,3.44,4.65,3.36,4.74,3.2,4.86,3.03,4.9,2.9,5.02,2.78,5.11,2.66,272.2,136c10.43,40.52-10.55,82.55-49.23,98.59-38.51,15.96-83.37,1.05-104.61-34.78-21.25-35.81-12.84-82.3,19.64-108.4L7.45,204.61c-1.33,15.55-1.42,43.58,12.32,73.73,27.88,61.23,89.5,80.23,99.89,83.24l-89.79-11.22c.35,10.29,2.64,35.62,20.71,59.51,28.64,37.88,73.43,41,80.29,41.36l-67.32,11.22c1.88,7.52,8.86,31.32,32.05,49.81,23.19,18.48,47.95,20,55.7,20.17-36.78,51.14-41.85,118.82-13.11,174.86,28.74,56.05,86.67,91.45,149.7,91.48Z"></path>
    </g>
  </g>
</svg></svg></g></g></svg>